<svg width="221" height="235" viewBox="0 0 221 235" fill="none" xmlns="http://www.w3.org/2000/svg">
<rect width="221" height="235" rx="30" fill="#E9ECEF"/>
<path d="M111.039 129.523H94.2344V167H73.1406V64.625H111.18C123.273 64.625 132.602 67.3203 139.164 72.7109C145.727 78.1016 149.008 85.7188 149.008 95.5625C149.008 102.547 147.484 108.383 144.438 113.07C141.438 117.711 136.867 121.414 130.727 124.18L152.875 166.016V167H130.234L111.039 129.523ZM94.2344 112.438H111.25C116.547 112.438 120.648 111.102 123.555 108.43C126.461 105.711 127.914 101.984 127.914 97.25C127.914 92.4219 126.531 88.625 123.766 85.8594C121.047 83.0938 116.852 81.7109 111.18 81.7109H94.2344V112.438Z" fill="black"/>
</svg>
